<?xml version="1.0" encoding="utf-8"?>
<!-- Generator: Adobe Illustrator 16.0.4, SVG Export Plug-In . SVG Version: 6.00 Build 0)  -->
<!DOCTYPE svg PUBLIC "-//W3C//DTD SVG 1.1//EN" "http://www.w3.org/Graphics/SVG/1.1/DTD/svg11.dtd">
<svg version="1.1" id="Layer_1" xmlns="http://www.w3.org/2000/svg" xmlns:xlink="http://www.w3.org/1999/xlink" x="0px" y="0px"
	 width="1000px" height="350px" viewBox="0 0 1000 350" enable-background="new 0 0 1000 350" xml:space="preserve">
<g>
	<path fill="#A6CEE3" d="M26.884,37.439h-8.22v-3.72l8.4-0.3l0.66-8.16h4.08v8.16h14.339v4.02H31.804v13.86
		c0,5.22,1.74,7.979,7.38,7.979c2.76,0,4.979-0.54,7.02-1.32l1.08,3.6c-2.64,0.96-6,1.74-9.18,1.74
		c-8.46,0-11.22-4.859-11.22-12.059V37.439z"/>
	<path fill="#1F78B4" d="M56.645,23.22h10.8c8.04,0,13.5,2.7,13.5,9.6c0,3.9-2.28,7.38-6.9,8.58v0.24c5.76,0.9,9.12,4.02,9.12,9.419
		c0,7.74-6.06,11.52-14.819,11.52h-11.7V23.22z M66.604,40.019c6.72,0,9.42-2.4,9.42-6.78c0-4.26-3.12-6.06-9.18-6.06h-5.16v12.839
		H66.604z M67.624,58.618c6.72,0,10.62-2.46,10.62-7.8c0-4.859-3.72-7.08-10.62-7.08h-5.939v14.879H67.624z"/>
	<path fill="#1F78B4" d="M104.404,32.699c7.68,0,14.399,5.58,14.399,15.359c0,9.66-6.72,15.239-14.399,15.239
		s-14.399-5.58-14.399-15.239C90.004,38.279,96.724,32.699,104.404,32.699z M104.404,59.218c5.58,0,9.3-4.5,9.3-11.16
		c0-6.72-3.72-11.279-9.3-11.279c-5.58,0-9.299,4.56-9.299,11.279C95.104,54.718,98.824,59.218,104.404,59.218z"/>
	<path fill="#1F78B4" d="M139.204,32.699c3.54,0,6.12,1.44,8.82,3.78l-0.18-5.399V19.86h4.92v42.718h-4.08l-0.42-3.84h-0.18
		c-2.4,2.46-5.879,4.56-9.479,4.56c-7.62,0-12.659-5.52-12.659-15.239C125.945,38.579,132.304,32.699,139.204,32.699z
		 M139.624,59.158c2.88,0,5.64-1.5,8.22-4.38v-14.52c-2.64-2.459-5.16-3.419-7.68-3.419c-5.04,0-9.12,4.5-9.12,11.159
		C131.044,54.958,134.224,59.158,139.624,59.158z"/>
	<path fill="#1F78B4" d="M165.964,71.038c4.08,0,6.54-2.64,7.979-6.24l0.9-2.16l-13.62-29.219h4.98l7.14,16.139
		c1.14,2.58,2.4,5.64,3.6,8.46h0.24c1.02-2.76,2.16-5.82,3.12-8.46l6.36-16.139h4.68l-12.839,31.559
		c-2.16,5.76-5.76,10.14-12.359,10.14c-1.38,0-2.82-0.24-3.84-0.6l1.02-3.9C164.104,70.858,165.064,71.038,165.964,71.038z"/>
	<path fill="#B2DF8A" d="M219.304,50.579h-14.28l-3.78,12h-5.1l13.259-39.358h5.64l13.259,39.358h-5.28L219.304,50.579z
		 M218.043,46.559l-1.86-6c-1.38-4.38-2.64-8.7-3.9-13.259h-0.24c-1.26,4.56-2.52,8.879-3.9,13.259l-1.86,6H218.043z"/>
	<path fill="#B2DF8A" d="M251.224,32.699c4.74,0,8.22,1.92,10.62,4.26l-2.46,3.18c-2.4-2.1-4.92-3.36-7.979-3.36
		c-6.72,0-11.34,4.56-11.34,11.279c0,6.66,4.5,11.16,11.22,11.16c3.6,0,6.6-1.62,9.06-3.66l2.16,3.18
		c-3.18,2.88-7.26,4.56-11.58,4.56c-9.12,0-15.959-5.58-15.959-15.239C234.964,38.279,242.404,32.699,251.224,32.699z"/>
	<path fill="#B2DF8A" d="M287.164,32.699c4.74,0,8.22,1.92,10.62,4.26l-2.46,3.18c-2.4-2.1-4.92-3.36-7.98-3.36
		c-6.72,0-11.339,4.56-11.339,11.279c0,6.66,4.5,11.16,11.219,11.16c3.601,0,6.601-1.62,9.061-3.66l2.159,3.18
		c-3.18,2.88-7.26,4.56-11.579,4.56c-9.12,0-15.959-5.58-15.959-15.239C270.904,38.279,278.344,32.699,287.164,32.699z"/>
	<path fill="#33A02C" d="M310.144,53.758c2.28,3.48,5.28,5.16,8.34,5.16c5.64,0,8.159-2.88,8.159-9.36V27.359h-16.499v-4.2h21.479
		v26.819c0,7.32-3.24,13.319-13.02,13.319c-4.44,0-9-1.979-11.7-6.54L310.144,53.758z"/>
	<path fill="#33A02C" d="M356.944,32.699c8.34,0,13.26,5.46,13.26,13.68c0,1.02-0.061,2.1-0.18,2.82h-22.8
		c0.24,6.18,4.8,10.14,11.16,10.14c3.42,0,6.18-1.02,8.88-2.7l1.739,3.24c-2.88,1.86-6.54,3.419-11.22,3.419
		c-8.64,0-15.659-5.7-15.659-15.239S349.384,32.699,356.944,32.699z M365.644,45.659c0-5.82-3.24-9.06-8.64-9.06
		c-4.74,0-9.06,3.36-9.84,9.06H365.644z"/>
	<path fill="#33A02C" d="M382.684,33.419h4.08l0.42,6.899h0.18c3.06-4.68,7.62-7.62,13.02-7.62c2.16,0,3.96,0.3,5.76,1.2l-1.14,4.26
		c-2.04-0.72-3.12-1.02-5.4-1.02c-4.38,0-8.52,2.28-11.999,8.34v17.099h-4.92V33.419z"/>
	<path fill="#33A02C" d="M416.223,19.86h4.92v28.919h0.24l15.72-15.359h5.64l-11.64,11.58l13.199,17.579h-5.52l-10.739-14.58
		l-6.9,6.66v7.92h-4.92V19.86z"/>
	<path d="M463.803,53.159c2.7,0,4.86,2.04,4.86,5.1c0,3-2.16,5.04-4.86,5.04c-2.699,0-4.859-2.04-4.859-5.04
		C458.944,55.198,461.104,53.159,463.803,53.159z"/>
	<path fill="#FB9A99" d="M485.344,33.419h3.84l0.42,3.84h0.18c1.439-2.7,3.24-4.56,6.539-4.56c2.941,0,4.801,1.68,5.521,5.04
		c1.738-3.06,3.658-5.04,6.898-5.04c4.02,0,6.359,3.18,6.359,9v20.879h-4.738V42.119c0-3.42-1.021-5.16-3.18-5.16
		c-2.102,0-3.48,1.5-4.98,4.5v21.119h-3.961V42.119c0-3.42-1.139-5.16-3.299-5.16c-2.041,0-3.359,1.5-4.859,4.5v21.119h-4.741
		V33.419z"/>
	<path fill="#FB9A99" d="M536.644,32.699c8.34,0,13.26,5.46,13.26,13.68c0,1.02-0.061,2.1-0.18,2.82h-22.801
		c0.24,6.18,4.801,10.14,11.16,10.14c3.42,0,6.18-1.02,8.881-2.7l1.738,3.24c-2.879,1.86-6.539,3.419-11.219,3.419
		c-8.641,0-15.66-5.7-15.66-15.239S529.083,32.699,536.644,32.699z M545.343,45.659c0-5.82-3.24-9.06-8.639-9.06
		c-4.74,0-9.061,3.36-9.84,9.06H545.343z"/>
	<path fill="#FB9A99" d="M579.603,44.099c-0.119-3.959-2.1-7.319-7.74-7.319c-3.779,0-7.5,1.8-10.199,3.479l-1.92-3.359
		c2.939-1.92,7.859-4.2,12.959-4.2c7.98,0,11.82,4.74,11.82,12v17.879h-4.02l-0.42-3.96h-0.18c-3.24,2.52-7.381,4.68-11.52,4.68
		c-5.461,0-9.9-3.06-9.9-8.279C558.483,48.479,564.544,45.299,579.603,44.099z M569.702,59.338c3.301,0,6.6-1.56,9.9-4.32v-7.68
		c-12.48,1.02-16.32,3.479-16.32,7.319C563.282,57.958,566.343,59.338,569.702,59.338z"/>
	<path fill="#FB9A99" d="M595.144,33.419h4.08l0.42,4.979h0.24c3.061-3.24,6.42-5.7,10.979-5.7c6.9,0,10.08,4.08,10.08,11.76v18.119
		h-4.92V45.119c0-5.52-1.92-8.16-6.719-8.16c-3.48,0-5.82,1.74-9.24,5.28v20.339h-4.92V33.419z"/>
	<path d="M643.503,53.159c2.701,0,4.861,2.04,4.861,5.1c0,3-2.16,5.04-4.861,5.04c-2.699,0-4.859-2.04-4.859-5.04
		C638.644,55.198,640.804,53.159,643.503,53.159z"/>
	<path fill="#E31A1C" d="M676.442,42.239L665.464,23.22h5.52l5.52,10.08c1.02,1.8,1.92,3.42,3.18,5.7h0.24
		c1.08-2.28,1.859-3.9,2.82-5.7l5.4-10.08h5.279l-10.98,19.259l11.76,20.099h-5.52l-5.939-10.62c-1.08-1.92-2.16-3.9-3.48-6.3h-0.24
		c-1.139,2.4-2.16,4.38-3.18,6.3l-5.879,10.62h-5.279L676.442,42.239z"/>
</g>
<g>
	<path fill="#E31A1C" d="M746.183,166.966c-0.873-0.608-1.908-0.912-3.108-0.912c-1.024,0-1.9,0.192-2.628,0.576
		c-0.729,0.384-1.328,0.9-1.801,1.548c-0.472,0.648-0.819,1.388-1.043,2.22c-0.225,0.832-0.336,1.696-0.336,2.592
		c0,0.976,0.111,1.9,0.336,2.772c0.224,0.872,0.571,1.632,1.043,2.279c0.473,0.648,1.076,1.164,1.812,1.549
		c0.736,0.384,1.616,0.576,2.641,0.576c0.752,0,1.42-0.124,2.004-0.372s1.088-0.592,1.512-1.032
		c0.424-0.439,0.756-0.964,0.996-1.572c0.24-0.607,0.384-1.264,0.432-1.968h2.28c-0.225,2.16-0.968,3.84-2.231,5.04
		c-1.265,1.2-2.992,1.8-5.185,1.8c-1.329,0-2.488-0.228-3.479-0.684c-0.992-0.456-1.816-1.084-2.473-1.884
		c-0.656-0.801-1.148-1.744-1.477-2.832s-0.491-2.256-0.491-3.504c0-1.248,0.176-2.42,0.528-3.516
		c0.352-1.096,0.867-2.052,1.547-2.868c0.681-0.816,1.528-1.46,2.545-1.932c1.016-0.472,2.18-0.708,3.492-0.708
		c0.896,0,1.743,0.12,2.543,0.36c0.801,0.24,1.513,0.592,2.137,1.056c0.624,0.464,1.144,1.044,1.56,1.74
		c0.416,0.696,0.688,1.5,0.816,2.412h-2.28C747.618,168.486,747.054,167.574,746.183,166.966z"/>
	<path fill="#E31A1C" d="M752.53,172.93c0.256-0.792,0.639-1.479,1.151-2.064c0.513-0.584,1.144-1.044,1.896-1.38
		s1.617-0.504,2.593-0.504c0.991,0,1.86,0.168,2.604,0.504c0.743,0.336,1.371,0.796,1.883,1.38c0.512,0.584,0.896,1.272,1.152,2.064
		s0.385,1.645,0.385,2.557s-0.129,1.76-0.385,2.543c-0.256,0.785-0.641,1.469-1.152,2.053s-1.14,1.04-1.883,1.367
		c-0.744,0.328-1.613,0.492-2.604,0.492c-0.976,0-1.841-0.164-2.593-0.492c-0.752-0.327-1.383-0.783-1.896-1.367
		s-0.896-1.268-1.151-2.053c-0.257-0.783-0.385-1.631-0.385-2.543S752.273,173.722,752.53,172.93z M754.606,177.49
		c0.199,0.584,0.475,1.072,0.827,1.463c0.353,0.393,0.765,0.693,1.236,0.9c0.472,0.209,0.972,0.312,1.5,0.312s1.028-0.104,1.5-0.312
		c0.472-0.207,0.884-0.508,1.235-0.9c0.352-0.391,0.629-0.879,0.828-1.463c0.2-0.584,0.301-1.252,0.301-2.004
		s-0.101-1.42-0.301-2.004c-0.199-0.584-0.477-1.076-0.828-1.476s-0.764-0.704-1.235-0.912s-0.972-0.312-1.5-0.312
		s-1.028,0.104-1.5,0.312s-0.884,0.512-1.236,0.912s-0.628,0.892-0.827,1.476c-0.201,0.584-0.301,1.252-0.301,2.004
		S754.405,176.906,754.606,177.49z"/>
	<path fill="#E31A1C" d="M768.514,169.27v1.824h0.048c0.928-1.408,2.264-2.112,4.008-2.112c0.768,0,1.465,0.16,2.088,0.48
		c0.625,0.32,1.064,0.864,1.32,1.632c0.416-0.672,0.964-1.192,1.645-1.56c0.68-0.368,1.428-0.552,2.244-0.552
		c0.623,0,1.188,0.068,1.691,0.204c0.504,0.136,0.936,0.348,1.296,0.636s0.64,0.66,0.841,1.116c0.199,0.456,0.299,1.004,0.299,1.644
		v9.096h-2.039v-8.136c0-0.384-0.033-0.744-0.097-1.08s-0.185-0.628-0.36-0.876s-0.42-0.444-0.731-0.588s-0.716-0.216-1.212-0.216
		c-1.008,0-1.801,0.288-2.376,0.864c-0.576,0.576-0.864,1.344-0.864,2.304v7.729h-2.04v-8.136c0-0.399-0.036-0.768-0.108-1.104
		c-0.071-0.336-0.195-0.627-0.371-0.876c-0.177-0.248-0.412-0.439-0.709-0.576c-0.295-0.136-0.676-0.204-1.139-0.204
		c-0.593,0-1.102,0.12-1.525,0.36c-0.424,0.24-0.768,0.528-1.031,0.864s-0.456,0.684-0.576,1.044c-0.119,0.36-0.18,0.66-0.18,0.899
		v7.729h-2.04V169.27H768.514z"/>
	<path fill="#E31A1C" d="M789.177,169.27v1.68h0.049c0.336-0.688,0.863-1.188,1.584-1.5c0.72-0.312,1.512-0.468,2.375-0.468
		c0.961,0,1.797,0.176,2.509,0.528c0.712,0.352,1.304,0.828,1.776,1.428c0.471,0.6,0.828,1.292,1.067,2.076
		c0.24,0.784,0.36,1.616,0.36,2.496s-0.116,1.713-0.348,2.496c-0.232,0.784-0.585,1.468-1.057,2.052
		c-0.473,0.585-1.064,1.044-1.775,1.38c-0.713,0.336-1.541,0.504-2.484,0.504c-0.305,0-0.645-0.031-1.02-0.096
		c-0.377-0.064-0.748-0.168-1.117-0.312c-0.367-0.144-0.716-0.34-1.043-0.588c-0.328-0.248-0.604-0.555-0.828-0.924h-0.049v6.385
		h-2.039V169.27H789.177z M796.509,173.674c-0.152-0.552-0.383-1.044-0.695-1.476s-0.713-0.776-1.2-1.032
		c-0.488-0.255-1.06-0.384-1.716-0.384c-0.688,0-1.271,0.136-1.752,0.408s-0.873,0.628-1.176,1.068c-0.305,0.44-0.525,0.94-0.66,1.5
		c-0.137,0.561-0.204,1.128-0.204,1.704c0,0.608,0.071,1.196,0.216,1.764c0.145,0.568,0.372,1.068,0.684,1.5
		c0.312,0.433,0.717,0.78,1.213,1.044c0.495,0.264,1.096,0.396,1.799,0.396c0.705,0,1.293-0.137,1.765-0.408s0.853-0.632,1.14-1.08
		c0.289-0.447,0.496-0.96,0.625-1.536c0.127-0.575,0.191-1.167,0.191-1.776C796.737,174.789,796.661,174.226,796.509,173.674z"/>
	<path fill="#E31A1C" d="M801.009,172.93c0.256-0.792,0.641-1.479,1.152-2.064c0.512-0.584,1.145-1.044,1.896-1.38
		s1.615-0.504,2.592-0.504c0.992,0,1.859,0.168,2.604,0.504s1.372,0.796,1.885,1.38c0.512,0.584,0.896,1.272,1.151,2.064
		s0.384,1.645,0.384,2.557s-0.128,1.76-0.384,2.543c-0.256,0.785-0.64,1.469-1.151,2.053c-0.513,0.584-1.141,1.04-1.885,1.367
		c-0.744,0.328-1.611,0.492-2.604,0.492c-0.977,0-1.84-0.164-2.592-0.492c-0.752-0.327-1.385-0.783-1.896-1.367
		s-0.896-1.268-1.152-2.053c-0.256-0.783-0.384-1.631-0.384-2.543S800.753,173.722,801.009,172.93z M803.085,177.49
		c0.2,0.584,0.477,1.072,0.828,1.463c0.352,0.393,0.764,0.693,1.236,0.9c0.472,0.209,0.972,0.312,1.5,0.312
		c0.527,0,1.027-0.104,1.5-0.312c0.472-0.207,0.884-0.508,1.236-0.9c0.352-0.391,0.627-0.879,0.828-1.463
		c0.199-0.584,0.299-1.252,0.299-2.004s-0.1-1.42-0.299-2.004c-0.201-0.584-0.477-1.076-0.828-1.476
		c-0.353-0.4-0.765-0.704-1.236-0.912c-0.473-0.208-0.973-0.312-1.5-0.312c-0.528,0-1.028,0.104-1.5,0.312
		c-0.473,0.208-0.885,0.512-1.236,0.912s-0.628,0.892-0.828,1.476c-0.2,0.584-0.3,1.252-0.3,2.004S802.885,176.906,803.085,177.49z"
		/>
	<path fill="#E31A1C" d="M816.993,169.27v1.968h0.048c0.849-1.504,2.192-2.256,4.032-2.256c0.816,0,1.496,0.112,2.04,0.336
		s0.983,0.536,1.319,0.936s0.572,0.876,0.709,1.428c0.135,0.552,0.203,1.164,0.203,1.836v8.16h-2.039v-8.4
		c0-0.768-0.225-1.376-0.672-1.824c-0.449-0.448-1.064-0.672-1.849-0.672c-0.624,0-1.164,0.096-1.62,0.288s-0.836,0.464-1.141,0.816
		c-0.303,0.352-0.531,0.764-0.684,1.236c-0.152,0.472-0.228,0.988-0.228,1.548v7.008h-2.04V169.27H816.993z"/>
	<path fill="#E31A1C" d="M837.2,180.886c-0.928,0.704-2.096,1.056-3.504,1.056c-0.992,0-1.852-0.16-2.58-0.479
		c-0.728-0.319-1.34-0.769-1.836-1.345s-0.867-1.264-1.115-2.063s-0.389-1.672-0.42-2.616c0-0.943,0.144-1.808,0.432-2.592
		c0.288-0.784,0.691-1.464,1.212-2.04s1.136-1.023,1.849-1.344c0.711-0.32,1.491-0.48,2.34-0.48c1.104,0,2.02,0.228,2.748,0.684
		c0.728,0.456,1.312,1.036,1.752,1.74c0.439,0.704,0.744,1.472,0.912,2.304s0.235,1.624,0.203,2.376h-9.287
		c-0.017,0.544,0.047,1.061,0.191,1.548c0.145,0.488,0.376,0.921,0.696,1.296c0.319,0.376,0.728,0.676,1.224,0.9
		s1.08,0.336,1.752,0.336c0.864,0,1.572-0.2,2.125-0.6c0.551-0.4,0.915-1.009,1.092-1.824h2.016
		C838.729,179.134,838.128,180.182,837.2,180.886z M836.709,172.918c-0.185-0.432-0.433-0.804-0.744-1.116s-0.681-0.56-1.104-0.744
		c-0.424-0.184-0.892-0.276-1.403-0.276c-0.528,0-1.005,0.092-1.429,0.276c-0.424,0.184-0.787,0.436-1.092,0.756
		c-0.304,0.32-0.544,0.692-0.72,1.116c-0.177,0.424-0.28,0.876-0.312,1.355h7.127C837.001,173.806,836.893,173.35,836.709,172.918z"
		/>
	<path fill="#E31A1C" d="M843.225,169.27v1.968h0.048c0.848-1.504,2.191-2.256,4.032-2.256c0.815,0,1.495,0.112,2.04,0.336
		c0.543,0.224,0.984,0.536,1.32,0.936s0.571,0.876,0.707,1.428c0.137,0.552,0.205,1.164,0.205,1.836v8.16h-2.041v-8.4
		c0-0.768-0.224-1.376-0.672-1.824c-0.447-0.448-1.064-0.672-1.848-0.672c-0.624,0-1.164,0.096-1.62,0.288s-0.836,0.464-1.14,0.816
		c-0.305,0.352-0.532,0.764-0.684,1.236c-0.152,0.472-0.229,0.988-0.229,1.548v7.008h-2.04V169.27H843.225z"/>
	<path fill="#E31A1C" d="M859.952,169.27v1.8h-2.472v7.704c0,0.24,0.02,0.432,0.06,0.576s0.116,0.256,0.229,0.336
		c0.111,0.08,0.268,0.133,0.468,0.156s0.46,0.036,0.78,0.036h0.936v1.8h-1.561c-0.527,0-0.979-0.036-1.355-0.107
		c-0.376-0.072-0.68-0.205-0.912-0.396s-0.404-0.464-0.516-0.816c-0.112-0.352-0.168-0.816-0.168-1.392v-7.896h-2.112v-1.8h2.112
		v-3.72h2.04v3.72H859.952z"/>
	<path fill="#FB9A99" d="M744.406,195.682c-0.761-0.553-1.732-0.828-2.916-0.828c-0.479,0-0.952,0.048-1.416,0.145
		c-0.464,0.096-0.876,0.256-1.236,0.479s-0.647,0.524-0.864,0.899c-0.215,0.377-0.324,0.845-0.324,1.404
		c0,0.528,0.156,0.957,0.469,1.284c0.312,0.328,0.729,0.597,1.248,0.804c0.52,0.209,1.107,0.381,1.764,0.517
		s1.324,0.284,2.004,0.444s1.348,0.348,2.004,0.563s1.244,0.509,1.765,0.876c0.52,0.368,0.936,0.832,1.247,1.393
		c0.312,0.56,0.469,1.264,0.469,2.111c0,0.912-0.204,1.692-0.612,2.34c-0.407,0.648-0.933,1.176-1.571,1.584
		c-0.641,0.408-1.356,0.704-2.148,0.889c-0.792,0.184-1.58,0.275-2.364,0.275c-0.96,0-1.868-0.12-2.724-0.359
		c-0.856-0.24-1.607-0.604-2.256-1.093c-0.648-0.487-1.16-1.111-1.536-1.872c-0.376-0.76-0.563-1.659-0.563-2.699h2.159
		c0,0.72,0.14,1.34,0.42,1.859c0.28,0.521,0.648,0.948,1.104,1.284c0.455,0.336,0.987,0.584,1.596,0.744
		c0.607,0.16,1.232,0.24,1.872,0.24c0.512,0,1.028-0.048,1.548-0.145c0.52-0.096,0.988-0.26,1.404-0.492
		c0.416-0.231,0.752-0.548,1.008-0.947c0.256-0.4,0.384-0.912,0.384-1.536c0-0.592-0.155-1.072-0.468-1.439
		c-0.312-0.369-0.729-0.668-1.248-0.9s-1.107-0.42-1.764-0.564s-1.324-0.291-2.004-0.443c-0.681-0.152-1.349-0.328-2.004-0.528
		c-0.656-0.2-1.244-0.464-1.765-0.792s-0.937-0.752-1.248-1.271c-0.312-0.521-0.468-1.172-0.468-1.957
		c0-0.863,0.176-1.611,0.527-2.244c0.353-0.631,0.82-1.151,1.404-1.56s1.248-0.712,1.992-0.912s1.508-0.3,2.292-0.3
		c0.88,0,1.696,0.104,2.448,0.312c0.752,0.207,1.412,0.535,1.98,0.983c0.567,0.448,1.016,1.013,1.344,1.692s0.508,1.492,0.539,2.436
		h-2.159C745.61,197.125,745.166,196.233,744.406,195.682z"/>
	<path fill="#FB9A99" d="M751.161,195.838v-2.496h2.041v2.496H751.161z M753.202,198.069v12.408h-2.041v-12.408H753.202z"/>
	<path fill="#FB9A99" d="M765.682,213.981c-0.929,1.008-2.384,1.512-4.368,1.512c-0.576,0-1.164-0.063-1.764-0.191
		c-0.6-0.129-1.145-0.336-1.633-0.624s-0.892-0.664-1.211-1.128c-0.32-0.465-0.496-1.032-0.528-1.704h2.04
		c0.016,0.368,0.132,0.68,0.348,0.936c0.217,0.256,0.48,0.464,0.792,0.624s0.651,0.276,1.021,0.349
		c0.367,0.071,0.72,0.107,1.056,0.107c0.672,0,1.239-0.116,1.704-0.348c0.464-0.232,0.848-0.552,1.152-0.96
		c0.303-0.408,0.523-0.9,0.66-1.477c0.135-0.575,0.203-1.207,0.203-1.896v-0.816h-0.048c-0.353,0.769-0.884,1.332-1.597,1.692
		c-0.711,0.36-1.467,0.54-2.268,0.54c-0.928,0-1.736-0.168-2.424-0.504s-1.264-0.788-1.729-1.356
		c-0.463-0.567-0.812-1.231-1.043-1.992c-0.232-0.76-0.349-1.563-0.349-2.411c0-0.736,0.097-1.492,0.288-2.269
		c0.192-0.776,0.512-1.479,0.96-2.112c0.448-0.631,1.04-1.151,1.776-1.56c0.735-0.408,1.64-0.612,2.712-0.612
		c0.784,0,1.503,0.172,2.159,0.516c0.656,0.345,1.168,0.861,1.537,1.549h0.023v-1.776h1.92v11.353
		C767.073,211.453,766.609,212.974,765.682,213.981z M763.077,208.401c0.473-0.279,0.853-0.647,1.141-1.104
		c0.287-0.456,0.5-0.973,0.636-1.548c0.136-0.576,0.204-1.152,0.204-1.729c0-0.543-0.064-1.08-0.191-1.607
		c-0.129-0.528-0.333-1.004-0.613-1.429c-0.279-0.423-0.644-0.764-1.092-1.021c-0.447-0.255-0.992-0.383-1.632-0.383
		c-0.656,0-1.216,0.123-1.68,0.371s-0.845,0.58-1.14,0.996c-0.297,0.416-0.513,0.896-0.648,1.44
		c-0.137,0.544-0.204,1.112-0.204,1.704c0,0.561,0.056,1.12,0.168,1.68c0.112,0.561,0.304,1.068,0.576,1.524s0.632,0.824,1.08,1.104
		c0.448,0.28,1.008,0.42,1.68,0.42C762.034,208.821,762.605,208.682,763.077,208.401z"/>
	<path fill="#FB9A99" d="M772.065,198.069v1.968h0.048c0.849-1.504,2.192-2.256,4.032-2.256c0.816,0,1.496,0.112,2.04,0.336
		c0.544,0.225,0.983,0.537,1.319,0.937s0.572,0.876,0.709,1.428c0.135,0.552,0.203,1.164,0.203,1.836v8.16h-2.039v-8.399
		c0-0.769-0.225-1.377-0.672-1.824c-0.449-0.448-1.064-0.672-1.849-0.672c-0.624,0-1.164,0.096-1.62,0.287
		c-0.456,0.192-0.836,0.465-1.141,0.816c-0.303,0.352-0.531,0.764-0.684,1.236c-0.152,0.472-0.228,0.988-0.228,1.548v7.008h-2.04
		v-12.408H772.065z"/>
	<path fill="#FB9A99" d="M794.481,210.43c-0.353,0.208-0.84,0.312-1.465,0.312c-0.527,0-0.947-0.147-1.26-0.443
		c-0.312-0.296-0.468-0.78-0.468-1.452c-0.56,0.672-1.212,1.156-1.956,1.452s-1.548,0.443-2.412,0.443
		c-0.561,0-1.092-0.063-1.596-0.191s-0.94-0.328-1.309-0.601c-0.367-0.271-0.66-0.627-0.875-1.067
		c-0.217-0.44-0.324-0.973-0.324-1.597c0-0.703,0.119-1.279,0.359-1.728s0.557-0.812,0.948-1.093
		c0.392-0.279,0.841-0.491,1.345-0.635c0.504-0.145,1.02-0.265,1.547-0.36c0.561-0.112,1.092-0.196,1.597-0.252
		c0.504-0.056,0.948-0.136,1.332-0.24s0.688-0.256,0.911-0.456c0.225-0.199,0.337-0.492,0.337-0.876c0-0.448-0.085-0.808-0.253-1.08
		s-0.383-0.479-0.647-0.624c-0.264-0.145-0.56-0.24-0.888-0.288s-0.652-0.071-0.973-0.071c-0.863,0-1.584,0.164-2.16,0.492
		c-0.575,0.328-0.887,0.947-0.936,1.859h-2.039c0.031-0.768,0.191-1.416,0.479-1.943c0.288-0.529,0.672-0.957,1.151-1.285
		c0.48-0.327,1.028-0.563,1.645-0.707c0.615-0.145,1.275-0.217,1.98-0.217c0.559,0,1.115,0.041,1.668,0.12
		c0.551,0.08,1.051,0.243,1.5,0.491c0.447,0.248,0.807,0.595,1.08,1.041c0.271,0.447,0.407,1.03,0.407,1.748v6.371
		c0,0.479,0.028,0.83,0.084,1.054s0.244,0.335,0.563,0.335c0.177,0,0.385-0.032,0.625-0.096V210.43z M791.169,204.069
		c-0.256,0.191-0.592,0.331-1.008,0.419c-0.416,0.087-0.852,0.158-1.309,0.215c-0.455,0.055-0.916,0.119-1.379,0.19
		c-0.465,0.071-0.881,0.188-1.248,0.347c-0.369,0.158-0.669,0.386-0.9,0.681c-0.232,0.294-0.348,0.696-0.348,1.206
		c0,0.334,0.067,0.616,0.203,0.848c0.137,0.23,0.312,0.418,0.528,0.562c0.216,0.143,0.468,0.246,0.757,0.311
		c0.287,0.063,0.591,0.095,0.911,0.095c0.673,0,1.248-0.092,1.728-0.274c0.48-0.183,0.873-0.414,1.177-0.692
		c0.304-0.279,0.528-0.581,0.672-0.907c0.144-0.327,0.216-0.634,0.216-0.92V204.069z"/>
	<path fill="#FB9A99" d="M798.536,193.342v17.136h-2.039v-17.136H798.536z"/>
	<path fill="#FB9A99" d="M817.293,195.682c-0.761-0.553-1.732-0.828-2.916-0.828c-0.479,0-0.952,0.048-1.416,0.145
		c-0.464,0.096-0.876,0.256-1.236,0.479s-0.647,0.524-0.864,0.899c-0.215,0.377-0.324,0.845-0.324,1.404
		c0,0.528,0.156,0.957,0.469,1.284c0.312,0.328,0.729,0.597,1.248,0.804c0.52,0.209,1.107,0.381,1.764,0.517
		s1.324,0.284,2.004,0.444s1.348,0.348,2.004,0.563s1.244,0.509,1.765,0.876c0.52,0.368,0.936,0.832,1.247,1.393
		c0.312,0.56,0.469,1.264,0.469,2.111c0,0.912-0.204,1.692-0.612,2.34c-0.407,0.648-0.933,1.176-1.571,1.584
		c-0.641,0.408-1.356,0.704-2.148,0.889c-0.792,0.184-1.58,0.275-2.364,0.275c-0.96,0-1.868-0.12-2.724-0.359
		c-0.856-0.24-1.607-0.604-2.256-1.093c-0.648-0.487-1.16-1.111-1.536-1.872c-0.376-0.76-0.563-1.659-0.563-2.699h2.159
		c0,0.72,0.14,1.34,0.42,1.859c0.28,0.521,0.648,0.948,1.104,1.284c0.455,0.336,0.987,0.584,1.596,0.744
		c0.607,0.16,1.232,0.24,1.872,0.24c0.512,0,1.028-0.048,1.548-0.145c0.52-0.096,0.988-0.26,1.404-0.492
		c0.416-0.231,0.752-0.548,1.008-0.947c0.256-0.4,0.384-0.912,0.384-1.536c0-0.592-0.155-1.072-0.468-1.439
		c-0.312-0.369-0.729-0.668-1.248-0.9s-1.107-0.42-1.764-0.564s-1.324-0.291-2.004-0.443c-0.681-0.152-1.349-0.328-2.004-0.528
		c-0.656-0.2-1.244-0.464-1.765-0.792s-0.937-0.752-1.248-1.271c-0.312-0.521-0.468-1.172-0.468-1.957
		c0-0.863,0.176-1.611,0.527-2.244c0.353-0.631,0.82-1.151,1.404-1.56s1.248-0.712,1.992-0.912s1.508-0.3,2.292-0.3
		c0.88,0,1.696,0.104,2.448,0.312c0.752,0.207,1.412,0.535,1.98,0.983c0.567,0.448,1.016,1.013,1.344,1.692s0.508,1.492,0.539,2.436
		h-2.159C818.497,197.125,818.053,196.233,817.293,195.682z"/>
	<path fill="#FB9A99" d="M829.232,198.069v1.8h-2.472v7.704c0,0.24,0.02,0.433,0.061,0.576c0.039,0.145,0.115,0.256,0.227,0.336
		c0.112,0.08,0.269,0.132,0.469,0.156c0.199,0.024,0.46,0.036,0.779,0.036h0.937v1.8h-1.56c-0.528,0-0.98-0.036-1.356-0.108
		c-0.376-0.071-0.681-0.203-0.911-0.396c-0.232-0.192-0.404-0.464-0.517-0.816c-0.112-0.352-0.168-0.815-0.168-1.392v-7.896h-2.112
		v-1.8h2.112v-3.72h2.04v3.72H829.232z"/>
	<path fill="#FB9A99" d="M842.479,210.43c-0.352,0.208-0.84,0.312-1.463,0.312c-0.528,0-0.948-0.147-1.26-0.443
		c-0.312-0.296-0.469-0.78-0.469-1.452c-0.561,0.672-1.212,1.156-1.956,1.452c-0.743,0.296-1.548,0.443-2.412,0.443
		c-0.56,0-1.092-0.063-1.596-0.191s-0.94-0.328-1.308-0.601c-0.369-0.271-0.66-0.627-0.877-1.067
		c-0.215-0.44-0.324-0.973-0.324-1.597c0-0.703,0.121-1.279,0.361-1.728c0.239-0.448,0.555-0.812,0.947-1.093
		c0.393-0.279,0.84-0.491,1.344-0.635c0.504-0.145,1.021-0.265,1.549-0.36c0.56-0.112,1.092-0.196,1.596-0.252
		s0.947-0.136,1.332-0.24c0.384-0.104,0.688-0.256,0.912-0.456c0.224-0.199,0.336-0.492,0.336-0.876c0-0.448-0.084-0.808-0.252-1.08
		s-0.385-0.479-0.648-0.624s-0.561-0.24-0.888-0.288c-0.328-0.048-0.652-0.071-0.972-0.071c-0.864,0-1.584,0.164-2.16,0.492
		s-0.889,0.947-0.937,1.859h-2.04c0.032-0.768,0.192-1.416,0.48-1.943c0.287-0.529,0.672-0.957,1.152-1.285
		c0.479-0.327,1.027-0.563,1.644-0.707c0.616-0.145,1.275-0.217,1.979-0.217c0.561,0,1.116,0.041,1.668,0.12
		c0.553,0.08,1.053,0.243,1.5,0.491c0.448,0.248,0.809,0.595,1.08,1.041c0.272,0.447,0.408,1.03,0.408,1.748v6.371
		c0,0.479,0.027,0.83,0.084,1.054s0.244,0.335,0.564,0.335c0.176,0,0.384-0.032,0.623-0.096V210.43z M839.168,204.069
		c-0.256,0.191-0.592,0.331-1.008,0.419c-0.416,0.087-0.853,0.158-1.308,0.215c-0.457,0.055-0.916,0.119-1.381,0.19
		c-0.464,0.071-0.88,0.188-1.248,0.347c-0.367,0.158-0.668,0.386-0.899,0.681c-0.232,0.294-0.349,0.696-0.349,1.206
		c0,0.334,0.068,0.616,0.205,0.848c0.135,0.23,0.312,0.418,0.527,0.562c0.217,0.143,0.469,0.246,0.756,0.311
		c0.288,0.063,0.592,0.095,0.912,0.095c0.672,0,1.248-0.092,1.729-0.274c0.479-0.183,0.871-0.414,1.176-0.692
		c0.304-0.279,0.527-0.581,0.672-0.907c0.145-0.327,0.216-0.634,0.216-0.92V204.069z"/>
	<path fill="#FB9A99" d="M849.68,198.069v1.8h-2.472v7.704c0,0.24,0.02,0.433,0.061,0.576c0.039,0.145,0.115,0.256,0.227,0.336
		c0.112,0.08,0.269,0.132,0.469,0.156c0.199,0.024,0.46,0.036,0.779,0.036h0.937v1.8h-1.56c-0.528,0-0.98-0.036-1.356-0.108
		c-0.376-0.071-0.681-0.203-0.911-0.396c-0.232-0.192-0.404-0.464-0.517-0.816c-0.112-0.352-0.168-0.815-0.168-1.392v-7.896h-2.112
		v-1.8h2.112v-3.72h2.04v3.72H849.68z"/>
	<path fill="#FB9A99" d="M852.056,195.838v-2.496h2.039v2.496H852.056z M854.095,198.069v12.408h-2.039v-12.408H854.095z"/>
	<path fill="#FB9A99" d="M858.823,207.705c0.192,0.312,0.444,0.561,0.756,0.744c0.312,0.185,0.664,0.316,1.057,0.396
		c0.392,0.08,0.795,0.12,1.212,0.12c0.319,0,0.655-0.024,1.008-0.072s0.676-0.136,0.972-0.264c0.297-0.128,0.541-0.316,0.732-0.564
		s0.288-0.563,0.288-0.948c0-0.527-0.2-0.928-0.601-1.199c-0.399-0.272-0.899-0.492-1.5-0.66c-0.6-0.168-1.252-0.32-1.955-0.456
		c-0.705-0.136-1.356-0.328-1.957-0.576c-0.6-0.248-1.1-0.596-1.5-1.044c-0.399-0.447-0.6-1.072-0.6-1.872
		c0-0.624,0.141-1.159,0.42-1.608c0.279-0.447,0.641-0.812,1.08-1.092c0.439-0.279,0.936-0.488,1.488-0.624
		c0.552-0.136,1.1-0.204,1.645-0.204c0.703,0,1.352,0.061,1.943,0.18c0.592,0.121,1.116,0.328,1.572,0.625
		c0.455,0.296,0.819,0.695,1.092,1.199c0.271,0.504,0.432,1.133,0.48,1.885h-2.041c-0.031-0.4-0.136-0.732-0.312-0.996
		c-0.177-0.264-0.399-0.477-0.672-0.637c-0.272-0.159-0.572-0.275-0.899-0.348c-0.328-0.072-0.66-0.107-0.996-0.107
		c-0.305,0-0.613,0.023-0.925,0.071s-0.597,0.132-0.852,0.253c-0.257,0.119-0.464,0.279-0.624,0.479s-0.24,0.46-0.24,0.78
		c0,0.352,0.124,0.644,0.372,0.875c0.248,0.232,0.563,0.425,0.948,0.576c0.384,0.152,0.816,0.28,1.296,0.385
		c0.479,0.104,0.96,0.212,1.44,0.324c0.512,0.111,1.012,0.248,1.5,0.407c0.487,0.16,0.92,0.372,1.295,0.636
		c0.376,0.264,0.68,0.597,0.912,0.996c0.232,0.4,0.348,0.896,0.348,1.488c0,0.752-0.155,1.376-0.467,1.872
		c-0.312,0.496-0.721,0.896-1.225,1.2s-1.072,0.516-1.704,0.636s-1.26,0.18-1.884,0.18c-0.688,0-1.344-0.071-1.968-0.216
		c-0.624-0.144-1.177-0.38-1.656-0.708c-0.479-0.327-0.864-0.76-1.151-1.296c-0.289-0.536-0.449-1.188-0.48-1.956h2.04
		C858.527,207.014,858.632,207.394,858.823,207.705z"/>
	<path fill="#FB9A99" d="M874.567,198.069v1.8h-2.472v7.704c0,0.24,0.02,0.433,0.06,0.576c0.04,0.145,0.116,0.256,0.229,0.336
		c0.111,0.08,0.268,0.132,0.468,0.156s0.46,0.036,0.78,0.036h0.936v1.8h-1.561c-0.527,0-0.979-0.036-1.355-0.108
		c-0.376-0.071-0.68-0.203-0.912-0.396s-0.404-0.464-0.516-0.816c-0.112-0.352-0.168-0.815-0.168-1.392v-7.896h-2.112v-1.8h2.112
		v-3.72h2.04v3.72H874.567z"/>
	<path fill="#FB9A99" d="M876.942,195.838v-2.496h2.041v2.496H876.942z M878.983,198.069v12.408h-2.041v-12.408H878.983z"/>
	<path fill="#FB9A99" d="M889.567,200.229c-0.513-0.433-1.201-0.647-2.064-0.647c-0.736,0-1.353,0.136-1.848,0.408
		c-0.496,0.271-0.893,0.631-1.188,1.079s-0.509,0.964-0.636,1.548c-0.129,0.584-0.192,1.188-0.192,1.812
		c0,0.576,0.067,1.136,0.204,1.68c0.136,0.544,0.348,1.028,0.636,1.452s0.664,0.765,1.128,1.02c0.465,0.257,1.016,0.385,1.656,0.385
		c1.008,0,1.796-0.265,2.364-0.792c0.567-0.528,0.915-1.272,1.044-2.232h2.088c-0.225,1.536-0.797,2.721-1.716,3.552
		c-0.921,0.832-2.173,1.248-3.757,1.248c-0.943,0-1.779-0.152-2.508-0.456s-1.336-0.735-1.824-1.296
		c-0.488-0.56-0.855-1.228-1.104-2.004c-0.248-0.775-0.372-1.628-0.372-2.556s0.12-1.796,0.36-2.604
		c0.24-0.809,0.604-1.513,1.092-2.113c0.488-0.6,1.1-1.071,1.836-1.416c0.736-0.344,1.592-0.516,2.568-0.516
		c0.703,0,1.363,0.084,1.98,0.252c0.615,0.168,1.159,0.429,1.631,0.78c0.473,0.353,0.86,0.796,1.164,1.332
		c0.305,0.536,0.496,1.173,0.576,1.908h-2.111C890.415,201.27,890.079,200.662,889.567,200.229z"/>
	<path fill="#FB9A99" d="M896.599,207.705c0.191,0.312,0.443,0.561,0.756,0.744c0.312,0.185,0.664,0.316,1.057,0.396
		c0.391,0.08,0.795,0.12,1.211,0.12c0.32,0,0.656-0.024,1.008-0.072c0.353-0.048,0.676-0.136,0.973-0.264
		c0.295-0.128,0.539-0.316,0.732-0.564c0.191-0.248,0.287-0.563,0.287-0.948c0-0.527-0.199-0.928-0.6-1.199
		c-0.4-0.272-0.9-0.492-1.5-0.66s-1.252-0.32-1.956-0.456s-1.356-0.328-1.956-0.576s-1.1-0.596-1.5-1.044
		c-0.4-0.447-0.6-1.072-0.6-1.872c0-0.624,0.14-1.159,0.42-1.608c0.279-0.447,0.64-0.812,1.08-1.092
		c0.439-0.279,0.936-0.488,1.488-0.624c0.551-0.136,1.1-0.204,1.644-0.204c0.704,0,1.352,0.061,1.944,0.18
		c0.592,0.121,1.115,0.328,1.572,0.625c0.455,0.296,0.818,0.695,1.092,1.199c0.271,0.504,0.432,1.133,0.479,1.885h-2.039
		c-0.033-0.4-0.137-0.732-0.312-0.996s-0.399-0.477-0.672-0.637c-0.271-0.159-0.572-0.275-0.899-0.348
		c-0.328-0.072-0.66-0.107-0.996-0.107c-0.304,0-0.612,0.023-0.925,0.071c-0.312,0.048-0.596,0.132-0.852,0.253
		c-0.256,0.119-0.464,0.279-0.623,0.479c-0.16,0.2-0.24,0.46-0.24,0.78c0,0.352,0.123,0.644,0.371,0.875
		c0.248,0.232,0.564,0.425,0.948,0.576c0.384,0.152,0.816,0.28,1.296,0.385c0.48,0.104,0.961,0.212,1.44,0.324
		c0.512,0.111,1.011,0.248,1.499,0.407c0.488,0.16,0.92,0.372,1.297,0.636c0.375,0.264,0.68,0.597,0.912,0.996
		c0.232,0.4,0.348,0.896,0.348,1.488c0,0.752-0.156,1.376-0.469,1.872c-0.311,0.496-0.719,0.896-1.223,1.2s-1.072,0.516-1.705,0.636
		c-0.631,0.12-1.26,0.18-1.883,0.18c-0.688,0-1.345-0.071-1.969-0.216c-0.623-0.144-1.176-0.38-1.656-0.708
		c-0.479-0.327-0.863-0.76-1.151-1.296s-0.448-1.188-0.479-1.956h2.039C896.302,207.014,896.406,207.394,896.599,207.705z"/>
	<path fill="#33A02C" d="M744.286,236.709c-0.168,0.561-0.448,1.061-0.84,1.5c-0.393,0.44-0.912,0.792-1.561,1.057
		c-0.647,0.264-1.451,0.396-2.412,0.396c-1.6,0-2.832-0.42-3.695-1.26c-0.864-0.84-1.297-2.076-1.297-3.708v-1.056h2.281v0.72
		c0,0.496,0.039,0.952,0.119,1.368s0.221,0.776,0.42,1.08c0.2,0.304,0.48,0.54,0.84,0.708c0.36,0.168,0.82,0.252,1.381,0.252
		c1.039,0,1.756-0.28,2.147-0.84c0.392-0.561,0.589-1.312,0.589-2.257v-12.527h2.279v12.863
		C744.538,235.581,744.454,236.149,744.286,236.709z"/>
	<path fill="#33A02C" d="M756.729,238.485c-0.928,0.704-2.096,1.056-3.504,1.056c-0.992,0-1.852-0.16-2.58-0.479
		c-0.728-0.32-1.34-0.769-1.836-1.344c-0.496-0.576-0.867-1.265-1.115-2.064s-0.389-1.672-0.42-2.616
		c0-0.943,0.144-1.808,0.432-2.592s0.691-1.464,1.212-2.04s1.136-1.023,1.849-1.344c0.711-0.32,1.491-0.48,2.34-0.48
		c1.104,0,2.02,0.229,2.748,0.685c0.728,0.456,1.312,1.036,1.752,1.739c0.439,0.705,0.744,1.473,0.912,2.305
		s0.235,1.624,0.203,2.376h-9.287c-0.017,0.544,0.047,1.06,0.191,1.548s0.376,0.92,0.696,1.296c0.319,0.376,0.728,0.676,1.224,0.9
		c0.496,0.224,1.08,0.336,1.752,0.336c0.864,0,1.572-0.2,2.125-0.601c0.551-0.399,0.915-1.008,1.092-1.823h2.016
		C758.258,236.733,757.657,237.781,756.729,238.485z M756.238,230.518c-0.185-0.433-0.433-0.805-0.744-1.116
		c-0.312-0.312-0.681-0.56-1.104-0.744c-0.424-0.184-0.892-0.276-1.403-0.276c-0.528,0-1.005,0.093-1.429,0.276
		c-0.424,0.185-0.787,0.437-1.092,0.756c-0.304,0.32-0.544,0.692-0.72,1.116c-0.177,0.424-0.28,0.876-0.312,1.356h7.127
		C756.53,231.405,756.422,230.949,756.238,230.518z"/>
	<path fill="#33A02C" d="M762.682,226.869v2.616h0.048c0.496-1.008,1.104-1.752,1.824-2.232c0.721-0.479,1.633-0.703,2.736-0.672
		v2.16c-0.816,0-1.512,0.112-2.088,0.336c-0.576,0.225-1.041,0.552-1.393,0.984c-0.352,0.432-0.607,0.956-0.768,1.572
		c-0.16,0.615-0.24,1.323-0.24,2.124v5.52h-2.04v-12.408H762.682z"/>
	<path fill="#33A02C" d="M770.985,222.142v10.151l5.664-5.424h2.736l-4.92,4.512l5.279,7.896h-2.592l-4.248-6.48l-1.92,1.776v4.704
		h-2.04v-17.136H770.985z"/>
	<path fill="#33A02C" d="M781.413,225.213c0.248-0.703,0.604-1.315,1.068-1.836c0.464-0.52,1.032-0.924,1.704-1.212
		s1.424-0.432,2.256-0.432c0.752,0,1.437,0.108,2.052,0.324c0.616,0.216,1.148,0.527,1.597,0.936s0.796,0.908,1.044,1.5
		c0.248,0.593,0.371,1.272,0.371,2.04c0,0.496-0.059,0.94-0.18,1.332c-0.119,0.393-0.275,0.748-0.468,1.068
		s-0.412,0.616-0.659,0.888c-0.249,0.272-0.501,0.536-0.757,0.792c-0.256,0.24-0.508,0.484-0.756,0.732s-0.472,0.512-0.672,0.792
		c-0.2,0.279-0.36,0.584-0.479,0.912c-0.121,0.328-0.181,0.699-0.181,1.115v0.937h-2.04v-1.128c0.032-0.672,0.156-1.244,0.372-1.716
		c0.216-0.473,0.479-0.893,0.792-1.261c0.312-0.367,0.64-0.708,0.984-1.02c0.344-0.312,0.664-0.64,0.959-0.984
		c0.297-0.344,0.532-0.724,0.709-1.14c0.176-0.416,0.248-0.92,0.216-1.512c-0.064-0.88-0.349-1.568-0.853-2.064
		s-1.188-0.744-2.052-0.744c-0.575,0-1.071,0.104-1.487,0.312s-0.765,0.488-1.045,0.84c-0.279,0.352-0.484,0.768-0.611,1.248
		c-0.129,0.479-0.192,1-0.192,1.56h-2.04C781.05,226.678,781.165,225.918,781.413,225.213z M787.642,236.613v2.664h-2.664v-2.664
		H787.642z"/>
	<path fill="#B2DF8A" d="M741.706,250.942c2.641,0,4.672,0.672,6.096,2.016s2.137,3.393,2.137,6.145c0,1.439-0.16,2.716-0.48,3.827
		c-0.32,1.112-0.816,2.049-1.488,2.809s-1.527,1.34-2.567,1.74c-1.04,0.399-2.272,0.6-3.696,0.6h-5.88v-17.136H741.706z
		 M741.897,266.158c0.256,0,0.576-0.02,0.961-0.061c0.384-0.039,0.791-0.136,1.224-0.287c0.433-0.152,0.86-0.372,1.284-0.66
		s0.804-0.68,1.14-1.176c0.337-0.496,0.612-1.116,0.828-1.86s0.324-1.645,0.324-2.7c0-1.023-0.101-1.939-0.3-2.748
		c-0.201-0.808-0.528-1.496-0.984-2.063c-0.456-0.568-1.044-1-1.764-1.297c-0.721-0.296-1.608-0.443-2.664-0.443h-3.84v13.296
		H741.897z"/>
	<path fill="#B2DF8A" d="M761.17,267.286c-0.928,0.704-2.097,1.056-3.504,1.056c-0.992,0-1.853-0.16-2.58-0.479
		c-0.728-0.32-1.341-0.769-1.836-1.344c-0.496-0.576-0.868-1.265-1.116-2.064s-0.388-1.672-0.42-2.616
		c0-0.943,0.145-1.808,0.432-2.592c0.289-0.784,0.692-1.464,1.213-2.04c0.52-0.576,1.136-1.023,1.848-1.344s1.492-0.48,2.34-0.48
		c1.104,0,2.02,0.229,2.748,0.685s1.312,1.036,1.752,1.739c0.439,0.705,0.744,1.473,0.912,2.305s0.236,1.624,0.204,2.376h-9.288
		c-0.016,0.544,0.048,1.06,0.191,1.548c0.145,0.488,0.377,0.92,0.697,1.296c0.319,0.376,0.727,0.676,1.224,0.9
		c0.495,0.224,1.079,0.336,1.752,0.336c0.864,0,1.571-0.2,2.124-0.601c0.552-0.399,0.916-1.008,1.092-1.823h2.016
		C762.698,265.534,762.098,266.582,761.17,267.286z M760.679,259.318c-0.185-0.433-0.433-0.805-0.744-1.116
		c-0.312-0.312-0.681-0.56-1.104-0.744c-0.425-0.184-0.892-0.276-1.403-0.276c-0.529,0-1.005,0.093-1.429,0.276
		c-0.425,0.185-0.788,0.437-1.092,0.756c-0.304,0.32-0.544,0.692-0.72,1.116c-0.177,0.424-0.281,0.876-0.312,1.356h7.128
		C760.97,260.206,760.862,259.75,760.679,259.318z"/>
	<path fill="#B2DF8A" d="M768.682,268.078l-4.608-12.408h2.281l3.479,10.344h0.048l3.384-10.344h2.136l-4.535,12.408H768.682z"/>
	<path fill="#B2DF8A" d="M777.394,253.438v-2.496h2.04v2.496H777.394z M779.434,255.67v12.408h-2.04V255.67H779.434z"/>
	<path fill="#B2DF8A" d="M790.018,257.83c-0.513-0.432-1.2-0.648-2.063-0.648c-0.736,0-1.354,0.137-1.849,0.408
		c-0.496,0.272-0.892,0.633-1.188,1.08c-0.296,0.448-0.508,0.964-0.636,1.548c-0.128,0.585-0.192,1.188-0.192,1.812
		c0,0.576,0.068,1.136,0.205,1.68c0.135,0.544,0.348,1.028,0.635,1.452c0.289,0.424,0.664,0.765,1.129,1.02
		c0.464,0.257,1.016,0.385,1.656,0.385c1.008,0,1.795-0.265,2.363-0.792c0.568-0.528,0.916-1.272,1.045-2.232h2.088
		c-0.225,1.536-0.797,2.721-1.717,3.552c-0.92,0.832-2.172,1.248-3.756,1.248c-0.944,0-1.779-0.152-2.508-0.456
		s-1.336-0.735-1.824-1.296c-0.488-0.56-0.855-1.228-1.104-2.004c-0.248-0.775-0.373-1.628-0.373-2.556s0.121-1.796,0.361-2.604
		c0.239-0.808,0.604-1.512,1.092-2.111c0.487-0.601,1.1-1.072,1.836-1.416c0.735-0.344,1.592-0.517,2.568-0.517
		c0.703,0,1.363,0.084,1.979,0.252s1.159,0.429,1.632,0.78c0.472,0.353,0.859,0.796,1.164,1.332
		c0.304,0.536,0.496,1.172,0.576,1.908h-2.112C790.865,258.87,790.529,258.262,790.018,257.83z"/>
	<path fill="#B2DF8A" d="M804.272,267.286c-0.928,0.704-2.096,1.056-3.504,1.056c-0.992,0-1.852-0.16-2.58-0.479
		c-0.728-0.32-1.34-0.769-1.836-1.344c-0.496-0.576-0.867-1.265-1.115-2.064s-0.389-1.672-0.42-2.616
		c0-0.943,0.144-1.808,0.432-2.592s0.691-1.464,1.212-2.04s1.136-1.023,1.849-1.344c0.711-0.32,1.491-0.48,2.34-0.48
		c1.104,0,2.02,0.229,2.748,0.685c0.728,0.456,1.312,1.036,1.752,1.739c0.439,0.705,0.744,1.473,0.912,2.305
		s0.235,1.624,0.203,2.376h-9.287c-0.017,0.544,0.047,1.06,0.191,1.548s0.376,0.92,0.696,1.296c0.319,0.376,0.728,0.676,1.224,0.9
		c0.496,0.224,1.08,0.336,1.752,0.336c0.864,0,1.572-0.2,2.125-0.601c0.551-0.399,0.915-1.008,1.092-1.823h2.016
		C805.801,265.534,805.2,266.582,804.272,267.286z M803.781,259.318c-0.185-0.433-0.433-0.805-0.744-1.116
		c-0.312-0.312-0.681-0.56-1.104-0.744c-0.424-0.184-0.892-0.276-1.403-0.276c-0.528,0-1.005,0.093-1.429,0.276
		c-0.424,0.185-0.787,0.437-1.092,0.756c-0.304,0.32-0.544,0.692-0.72,1.116c-0.177,0.424-0.28,0.876-0.312,1.356h7.127
		C804.073,260.206,803.965,259.75,803.781,259.318z"/>
	<path fill="#1F78B4" d="M735.382,284.938c0.344-1.079,0.86-2.035,1.549-2.867c0.688-0.832,1.543-1.496,2.567-1.992
		s2.216-0.744,3.576-0.744s2.552,0.248,3.575,0.744c1.024,0.496,1.881,1.16,2.568,1.992s1.204,1.788,1.549,2.867
		c0.344,1.08,0.516,2.205,0.516,3.372c0,1.169-0.172,2.292-0.516,3.372c-0.345,1.08-0.861,2.036-1.549,2.868
		s-1.544,1.492-2.568,1.98c-1.023,0.487-2.215,0.731-3.575,0.731s-2.552-0.244-3.576-0.731c-1.024-0.488-1.88-1.148-2.567-1.98
		c-0.688-0.832-1.205-1.788-1.549-2.868s-0.516-2.203-0.516-3.372C734.866,287.143,735.038,286.018,735.382,284.938z
		 M737.481,290.866c0.225,0.84,0.576,1.596,1.057,2.268s1.096,1.212,1.848,1.62s1.648,0.612,2.688,0.612s1.936-0.204,2.688-0.612
		c0.752-0.408,1.367-0.948,1.848-1.62s0.832-1.428,1.056-2.268s0.336-1.692,0.336-2.557c0-0.863-0.112-1.716-0.336-2.556
		s-0.575-1.596-1.056-2.268c-0.48-0.673-1.096-1.212-1.848-1.62c-0.753-0.408-1.648-0.612-2.688-0.612s-1.937,0.204-2.688,0.612
		s-1.367,0.947-1.848,1.62c-0.48,0.672-0.832,1.428-1.057,2.268c-0.224,0.84-0.336,1.692-0.336,2.556
		C737.146,289.174,737.258,290.026,737.481,290.866z"/>
	<path fill="#1F78B4" d="M755.842,279.742v6.408h0.048c0.336-0.688,0.864-1.188,1.584-1.5c0.721-0.312,1.512-0.469,2.376-0.469
		c0.96,0,1.796,0.177,2.509,0.528c0.711,0.353,1.303,0.828,1.775,1.428c0.472,0.601,0.828,1.293,1.068,2.076
		c0.24,0.784,0.359,1.616,0.359,2.496s-0.115,1.712-0.348,2.496s-0.584,1.468-1.057,2.052c-0.472,0.584-1.063,1.044-1.775,1.38
		s-1.54,0.504-2.484,0.504c-0.304,0-0.645-0.032-1.02-0.096c-0.376-0.064-0.748-0.168-1.116-0.312
		c-0.368-0.145-0.716-0.34-1.044-0.589c-0.328-0.247-0.604-0.556-0.828-0.924h-0.048v1.656h-2.04v-17.136H755.842z M763.174,288.874
		c-0.152-0.552-0.384-1.044-0.696-1.477c-0.312-0.432-0.712-0.775-1.199-1.031c-0.488-0.256-1.061-0.385-1.717-0.385
		c-0.688,0-1.271,0.137-1.752,0.408c-0.479,0.272-0.872,0.628-1.176,1.068c-0.305,0.44-0.524,0.94-0.66,1.5
		c-0.136,0.561-0.203,1.128-0.203,1.704c0,0.608,0.071,1.196,0.215,1.764c0.145,0.568,0.373,1.068,0.685,1.5
		c0.312,0.433,0.716,0.78,1.212,1.044c0.496,0.265,1.096,0.396,1.8,0.396s1.292-0.136,1.765-0.408
		c0.471-0.271,0.852-0.632,1.14-1.08c0.288-0.447,0.495-0.96,0.624-1.536c0.128-0.576,0.191-1.168,0.191-1.775
		C763.401,289.99,763.325,289.426,763.174,288.874z"/>
	<path fill="#1F78B4" d="M769.317,300.85c-0.535,0.504-1.26,0.756-2.172,0.756c-0.368,0-0.712-0.032-1.031-0.096v-1.752
		c0.08,0.016,0.147,0.028,0.203,0.036c0.057,0.008,0.116,0.012,0.18,0.012h0.433c0.448,0,0.752-0.124,0.912-0.372
		c0.159-0.248,0.239-0.692,0.239-1.332V284.47h2.041v13.968C770.122,299.542,769.854,300.346,769.317,300.85z M768.081,282.238
		v-2.496h2.041v2.496H768.081z"/>
	<path fill="#1F78B4" d="M782.073,296.086c-0.928,0.704-2.096,1.056-3.504,1.056c-0.992,0-1.852-0.16-2.58-0.479
		c-0.729-0.32-1.34-0.769-1.836-1.344c-0.496-0.576-0.868-1.265-1.115-2.064c-0.249-0.8-0.389-1.672-0.421-2.616
		c0-0.943,0.144-1.808,0.433-2.592c0.287-0.784,0.691-1.464,1.211-2.04c0.521-0.576,1.137-1.023,1.849-1.344s1.491-0.48,2.34-0.48
		c1.104,0,2.021,0.229,2.748,0.685s1.312,1.036,1.752,1.739c0.44,0.705,0.744,1.473,0.912,2.305s0.235,1.624,0.204,2.376h-9.288
		c-0.017,0.544,0.048,1.06,0.192,1.548c0.144,0.488,0.375,0.92,0.695,1.296s0.729,0.676,1.225,0.9
		c0.496,0.224,1.08,0.336,1.752,0.336c0.863,0,1.572-0.2,2.124-0.601c0.552-0.399,0.915-1.008,1.092-1.823h2.017
		C783.601,294.334,783.001,295.382,782.073,296.086z M781.581,288.118c-0.184-0.433-0.432-0.805-0.744-1.116
		c-0.312-0.312-0.68-0.56-1.104-0.744c-0.424-0.184-0.893-0.276-1.404-0.276c-0.527,0-1.004,0.093-1.428,0.276
		c-0.424,0.185-0.788,0.437-1.092,0.756c-0.305,0.32-0.545,0.692-0.721,1.116s-0.279,0.876-0.312,1.356h7.128
		C781.873,289.006,781.765,288.55,781.581,288.118z"/>
	<path fill="#1F78B4" d="M793.593,286.63c-0.512-0.432-1.199-0.648-2.063-0.648c-0.736,0-1.353,0.137-1.849,0.408
		c-0.496,0.272-0.892,0.633-1.188,1.08c-0.297,0.448-0.508,0.964-0.637,1.548c-0.127,0.585-0.191,1.188-0.191,1.812
		c0,0.576,0.068,1.136,0.204,1.68s0.349,1.028,0.636,1.452c0.288,0.424,0.664,0.765,1.129,1.02c0.463,0.257,1.016,0.385,1.655,0.385
		c1.008,0,1.796-0.265,2.364-0.792c0.567-0.528,0.916-1.272,1.044-2.232h2.088c-0.224,1.536-0.796,2.721-1.716,3.552
		c-0.92,0.832-2.172,1.248-3.756,1.248c-0.945,0-1.78-0.152-2.508-0.456c-0.729-0.304-1.337-0.735-1.824-1.296
		c-0.488-0.56-0.856-1.228-1.104-2.004c-0.248-0.775-0.372-1.628-0.372-2.556s0.12-1.796,0.36-2.604
		c0.239-0.808,0.604-1.512,1.092-2.111c0.487-0.601,1.101-1.072,1.836-1.416s1.592-0.517,2.568-0.517
		c0.704,0,1.364,0.084,1.979,0.252c0.616,0.168,1.16,0.429,1.633,0.78c0.471,0.353,0.859,0.796,1.164,1.332
		c0.303,0.536,0.495,1.172,0.575,1.908h-2.112C794.44,287.67,794.104,287.062,793.593,286.63z"/>
	<path fill="#1F78B4" d="M804.368,284.47v1.8h-2.471v7.704c0,0.24,0.02,0.433,0.06,0.576c0.04,0.145,0.116,0.256,0.228,0.336
		s0.268,0.132,0.469,0.156c0.199,0.024,0.459,0.036,0.779,0.036h0.936v1.8h-1.56c-0.528,0-0.979-0.036-1.356-0.108
		c-0.375-0.071-0.68-0.203-0.911-0.396c-0.232-0.192-0.404-0.464-0.517-0.816c-0.111-0.352-0.168-0.815-0.168-1.392v-7.896h-2.111
		v-1.8h2.111v-3.72h2.041v3.72H804.368z"/>
	<path fill="#1F78B4" d="M813.009,288.13c0.256-0.792,0.639-1.479,1.151-2.063s1.144-1.045,1.896-1.381s1.617-0.504,2.593-0.504
		c0.991,0,1.86,0.168,2.604,0.504c0.743,0.336,1.371,0.797,1.883,1.381s0.896,1.271,1.152,2.063s0.385,1.645,0.385,2.556
		c0,0.912-0.129,1.761-0.385,2.544c-0.256,0.784-0.641,1.469-1.152,2.053s-1.14,1.04-1.883,1.368
		c-0.744,0.327-1.613,0.491-2.604,0.491c-0.976,0-1.841-0.164-2.593-0.491c-0.752-0.328-1.383-0.784-1.896-1.368
		s-0.896-1.269-1.151-2.053c-0.257-0.783-0.385-1.632-0.385-2.544C812.624,289.774,812.752,288.922,813.009,288.13z
		 M815.085,292.689c0.199,0.585,0.475,1.072,0.827,1.465c0.353,0.392,0.765,0.691,1.236,0.899s0.972,0.312,1.5,0.312
		s1.028-0.104,1.5-0.312s0.884-0.508,1.235-0.899c0.352-0.393,0.629-0.88,0.828-1.465c0.2-0.583,0.301-1.251,0.301-2.004
		c0-0.752-0.101-1.419-0.301-2.004c-0.199-0.584-0.477-1.075-0.828-1.476c-0.352-0.399-0.764-0.704-1.235-0.912
		s-0.972-0.312-1.5-0.312s-1.028,0.104-1.5,0.312s-0.884,0.513-1.236,0.912c-0.353,0.4-0.628,0.892-0.827,1.476
		c-0.201,0.585-0.301,1.252-0.301,2.004C814.784,291.438,814.884,292.106,815.085,292.689z"/>
	<path fill="#1F78B4" d="M825.824,286.27v-1.8h2.088v-1.848c0-1.008,0.292-1.772,0.876-2.292s1.436-0.78,2.557-0.78
		c0.191,0,0.411,0.017,0.659,0.048c0.248,0.032,0.468,0.08,0.66,0.145v1.775c-0.177-0.063-0.368-0.107-0.576-0.132
		c-0.208-0.023-0.399-0.036-0.575-0.036c-0.496,0-0.881,0.097-1.152,0.288c-0.272,0.192-0.408,0.561-0.408,1.104v1.728h2.4v1.8h-2.4
		v10.608h-2.04V286.27H825.824z"/>
	<path fill="#1F78B4" d="M844.353,279.742l5.399,14.399l5.424-14.399h3.12v17.136h-2.16v-14.256h-0.048l-5.353,14.256h-1.943
		l-5.352-14.256h-0.049v14.256h-2.16v-17.136H844.353z"/>
	<path fill="#1F78B4" d="M870.536,296.086c-0.928,0.704-2.097,1.056-3.504,1.056c-0.992,0-1.853-0.16-2.58-0.479
		c-0.729-0.32-1.341-0.769-1.836-1.344c-0.496-0.576-0.869-1.265-1.116-2.064c-0.249-0.8-0.388-1.672-0.421-2.616
		c0-0.943,0.145-1.808,0.433-2.592s0.692-1.464,1.212-2.04s1.137-1.023,1.848-1.344c0.713-0.32,1.492-0.48,2.34-0.48
		c1.104,0,2.021,0.229,2.748,0.685c0.729,0.456,1.312,1.036,1.752,1.739c0.44,0.705,0.744,1.473,0.912,2.305
		s0.236,1.624,0.205,2.376h-9.289c-0.016,0.544,0.049,1.06,0.192,1.548s0.376,0.92,0.696,1.296s0.728,0.676,1.225,0.9
		c0.495,0.224,1.079,0.336,1.752,0.336c0.863,0,1.571-0.2,2.123-0.601c0.553-0.399,0.916-1.008,1.092-1.823h2.017
		C872.063,294.334,871.464,295.382,870.536,296.086z M870.044,288.118c-0.184-0.433-0.432-0.805-0.744-1.116
		c-0.312-0.312-0.68-0.56-1.104-0.744c-0.425-0.184-0.893-0.276-1.404-0.276c-0.528,0-1.004,0.093-1.428,0.276
		c-0.425,0.185-0.789,0.437-1.092,0.756c-0.305,0.32-0.545,0.692-0.721,1.116s-0.28,0.876-0.312,1.356h7.129
		C870.335,289.006,870.228,288.55,870.044,288.118z"/>
	<path fill="#1F78B4" d="M885.632,296.83c-0.353,0.208-0.84,0.312-1.465,0.312c-0.527,0-0.947-0.147-1.26-0.443
		c-0.312-0.296-0.468-0.78-0.468-1.452c-0.56,0.672-1.212,1.156-1.956,1.452s-1.548,0.443-2.412,0.443
		c-0.561,0-1.092-0.063-1.596-0.191s-0.94-0.328-1.309-0.601c-0.367-0.271-0.66-0.627-0.875-1.067
		c-0.217-0.44-0.324-0.973-0.324-1.597c0-0.703,0.119-1.279,0.359-1.728s0.557-0.812,0.948-1.092s0.841-0.492,1.345-0.637
		c0.504-0.144,1.02-0.264,1.547-0.359c0.561-0.112,1.092-0.196,1.597-0.252c0.504-0.056,0.948-0.136,1.332-0.24
		c0.384-0.104,0.688-0.256,0.911-0.456c0.225-0.2,0.337-0.492,0.337-0.876c0-0.447-0.085-0.808-0.253-1.08
		c-0.168-0.271-0.383-0.479-0.647-0.624c-0.264-0.144-0.56-0.24-0.888-0.288s-0.652-0.072-0.973-0.072
		c-0.863,0-1.584,0.165-2.16,0.492c-0.575,0.328-0.887,0.948-0.936,1.86h-2.039c0.031-0.768,0.191-1.416,0.479-1.944
		c0.288-0.527,0.672-0.956,1.151-1.284c0.48-0.327,1.028-0.563,1.645-0.708c0.615-0.144,1.275-0.216,1.98-0.216
		c0.559,0,1.115,0.04,1.668,0.12c0.551,0.08,1.051,0.243,1.5,0.491c0.447,0.247,0.807,0.595,1.08,1.042
		c0.271,0.446,0.407,1.029,0.407,1.747v6.371c0,0.479,0.028,0.83,0.084,1.054s0.244,0.335,0.563,0.335
		c0.177,0,0.385-0.032,0.625-0.096V296.83z M882.319,290.47c-0.256,0.191-0.592,0.331-1.008,0.418
		c-0.416,0.088-0.852,0.16-1.309,0.215c-0.455,0.057-0.916,0.12-1.379,0.191c-0.465,0.072-0.881,0.188-1.248,0.347
		c-0.369,0.158-0.669,0.386-0.9,0.681c-0.232,0.294-0.348,0.696-0.348,1.206c0,0.334,0.067,0.616,0.203,0.848
		c0.137,0.23,0.312,0.418,0.528,0.562c0.216,0.143,0.468,0.246,0.757,0.311c0.287,0.063,0.591,0.095,0.911,0.095
		c0.673,0,1.248-0.092,1.728-0.274c0.48-0.183,0.873-0.414,1.177-0.692c0.304-0.279,0.528-0.581,0.672-0.907
		c0.144-0.327,0.216-0.634,0.216-0.92V290.47z"/>
	<path fill="#1F78B4" d="M889.087,294.105c0.192,0.312,0.444,0.561,0.756,0.744c0.312,0.185,0.664,0.316,1.057,0.396
		c0.392,0.08,0.795,0.12,1.212,0.12c0.319,0,0.655-0.024,1.008-0.072s0.676-0.136,0.972-0.264c0.297-0.128,0.541-0.316,0.732-0.564
		s0.288-0.563,0.288-0.948c0-0.527-0.2-0.928-0.601-1.199c-0.399-0.272-0.899-0.492-1.5-0.66c-0.6-0.168-1.252-0.32-1.955-0.456
		c-0.705-0.136-1.356-0.328-1.957-0.576c-0.6-0.248-1.1-0.596-1.5-1.044c-0.399-0.448-0.6-1.072-0.6-1.872
		c0-0.624,0.141-1.16,0.42-1.608c0.279-0.447,0.641-0.812,1.08-1.092c0.439-0.279,0.936-0.487,1.488-0.624
		c0.552-0.136,1.1-0.204,1.645-0.204c0.703,0,1.352,0.061,1.943,0.181c0.592,0.119,1.116,0.328,1.572,0.624
		c0.455,0.296,0.819,0.695,1.092,1.199c0.271,0.504,0.432,1.133,0.48,1.885h-2.041c-0.031-0.4-0.136-0.732-0.312-0.996
		c-0.177-0.265-0.399-0.477-0.672-0.637c-0.272-0.159-0.572-0.275-0.899-0.348c-0.328-0.072-0.66-0.108-0.996-0.108
		c-0.305,0-0.613,0.024-0.925,0.072s-0.597,0.132-0.852,0.252c-0.257,0.12-0.464,0.28-0.624,0.48s-0.24,0.46-0.24,0.78
		c0,0.352,0.124,0.644,0.372,0.876c0.248,0.231,0.563,0.424,0.948,0.575c0.384,0.152,0.816,0.28,1.296,0.385
		c0.479,0.104,0.96,0.212,1.44,0.323c0.512,0.112,1.012,0.249,1.5,0.408c0.487,0.16,0.92,0.372,1.295,0.636
		c0.376,0.265,0.68,0.597,0.912,0.996c0.232,0.4,0.348,0.896,0.348,1.488c0,0.752-0.155,1.376-0.467,1.872
		c-0.312,0.496-0.721,0.896-1.225,1.2s-1.072,0.516-1.704,0.636s-1.26,0.18-1.884,0.18c-0.688,0-1.344-0.071-1.968-0.216
		c-0.624-0.144-1.177-0.38-1.656-0.708c-0.479-0.327-0.864-0.76-1.151-1.296c-0.289-0.536-0.449-1.188-0.48-1.956h2.04
		C888.791,293.414,888.896,293.794,889.087,294.105z"/>
	<path fill="#1F78B4" d="M907.879,296.878v-1.968h-0.048c-0.432,0.768-0.983,1.332-1.656,1.691c-0.672,0.36-1.464,0.54-2.376,0.54
		c-0.815,0-1.496-0.107-2.04-0.323c-0.544-0.217-0.983-0.524-1.319-0.925c-0.337-0.399-0.572-0.876-0.708-1.428
		c-0.137-0.552-0.204-1.164-0.204-1.836v-8.16h2.04v8.4c0,0.768,0.224,1.376,0.672,1.824c0.447,0.447,1.063,0.672,1.848,0.672
		c0.624,0,1.164-0.097,1.62-0.288c0.456-0.192,0.836-0.464,1.141-0.816c0.304-0.352,0.531-0.764,0.684-1.235
		c0.151-0.473,0.228-0.988,0.228-1.549v-7.008h2.04v12.408H907.879z"/>
	<path fill="#1F78B4" d="M914.719,284.47v2.616h0.048c0.496-1.008,1.104-1.752,1.824-2.232c0.72-0.479,1.632-0.703,2.736-0.672v2.16
		c-0.816,0-1.512,0.112-2.088,0.336c-0.576,0.225-1.041,0.552-1.393,0.984c-0.352,0.432-0.608,0.956-0.768,1.572
		c-0.16,0.615-0.24,1.323-0.24,2.124v5.52h-2.04V284.47H914.719z"/>
	<path fill="#1F78B4" d="M929.216,296.086c-0.929,0.704-2.097,1.056-3.504,1.056c-0.992,0-1.853-0.16-2.58-0.479
		c-0.729-0.32-1.341-0.769-1.836-1.344c-0.496-0.576-0.868-1.265-1.116-2.064s-0.389-1.672-0.42-2.616
		c0-0.943,0.144-1.808,0.432-2.592s0.692-1.464,1.212-2.04s1.136-1.023,1.849-1.344c0.711-0.32,1.491-0.48,2.34-0.48
		c1.104,0,2.02,0.229,2.748,0.685c0.728,0.456,1.312,1.036,1.752,1.739c0.439,0.705,0.744,1.473,0.912,2.305
		s0.235,1.624,0.203,2.376h-9.287c-0.017,0.544,0.048,1.06,0.191,1.548c0.145,0.488,0.376,0.92,0.696,1.296
		c0.319,0.376,0.728,0.676,1.224,0.9c0.496,0.224,1.08,0.336,1.752,0.336c0.864,0,1.572-0.2,2.124-0.601
		c0.553-0.399,0.916-1.008,1.092-1.823h2.017C930.743,294.334,930.144,295.382,929.216,296.086z M928.724,288.118
		c-0.185-0.433-0.432-0.805-0.744-1.116c-0.312-0.312-0.681-0.56-1.104-0.744c-0.425-0.184-0.893-0.276-1.404-0.276
		c-0.528,0-1.005,0.093-1.428,0.276c-0.425,0.185-0.789,0.437-1.093,0.756c-0.304,0.32-0.544,0.692-0.72,1.116
		s-0.28,0.876-0.312,1.356h7.128C929.016,289.006,928.907,288.55,928.724,288.118z"/>
	<path fill="#1F78B4" d="M935.238,284.47v1.824h0.048c0.928-1.408,2.264-2.112,4.008-2.112c0.769,0,1.464,0.16,2.088,0.48
		s1.064,0.864,1.32,1.632c0.416-0.672,0.964-1.191,1.645-1.56c0.68-0.368,1.428-0.553,2.243-0.553c0.624,0,1.188,0.068,1.692,0.204
		c0.504,0.137,0.936,0.349,1.296,0.636c0.36,0.288,0.64,0.66,0.84,1.116s0.3,1.005,0.3,1.645v9.096h-2.039v-8.136
		c0-0.384-0.033-0.744-0.097-1.08s-0.184-0.628-0.359-0.876c-0.177-0.248-0.421-0.444-0.732-0.588
		c-0.312-0.145-0.716-0.217-1.212-0.217c-1.008,0-1.8,0.288-2.376,0.864s-0.864,1.344-0.864,2.305v7.728h-2.04v-8.136
		c0-0.4-0.036-0.769-0.107-1.104c-0.072-0.336-0.196-0.628-0.372-0.876c-0.177-0.248-0.412-0.439-0.708-0.576
		c-0.297-0.136-0.677-0.204-1.141-0.204c-0.592,0-1.1,0.12-1.523,0.36c-0.425,0.24-0.769,0.528-1.032,0.864
		s-0.456,0.684-0.576,1.044s-0.18,0.66-0.18,0.9v7.728h-2.04V284.47H935.238z"/>
	<path fill="#1F78B4" d="M962.575,296.086c-0.929,0.704-2.097,1.056-3.504,1.056c-0.992,0-1.853-0.16-2.58-0.479
		c-0.729-0.32-1.341-0.769-1.836-1.344c-0.496-0.576-0.868-1.265-1.116-2.064s-0.389-1.672-0.42-2.616
		c0-0.943,0.144-1.808,0.432-2.592s0.692-1.464,1.212-2.04s1.136-1.023,1.849-1.344c0.711-0.32,1.491-0.48,2.34-0.48
		c1.104,0,2.02,0.229,2.748,0.685c0.728,0.456,1.312,1.036,1.752,1.739c0.439,0.705,0.744,1.473,0.912,2.305
		s0.235,1.624,0.203,2.376h-9.287c-0.017,0.544,0.048,1.06,0.191,1.548c0.145,0.488,0.376,0.92,0.696,1.296
		c0.319,0.376,0.728,0.676,1.224,0.9c0.496,0.224,1.08,0.336,1.752,0.336c0.864,0,1.572-0.2,2.124-0.601
		c0.553-0.399,0.916-1.008,1.092-1.823h2.017C964.103,294.334,963.503,295.382,962.575,296.086z M962.083,288.118
		c-0.185-0.433-0.432-0.805-0.744-1.116c-0.312-0.312-0.681-0.56-1.104-0.744c-0.425-0.184-0.893-0.276-1.404-0.276
		c-0.528,0-1.005,0.093-1.428,0.276c-0.425,0.185-0.789,0.437-1.093,0.756c-0.304,0.32-0.544,0.692-0.72,1.116
		s-0.28,0.876-0.312,1.356h7.128C962.375,289.006,962.267,288.55,962.083,288.118z"/>
	<path fill="#1F78B4" d="M968.599,284.47v1.968h0.048c0.848-1.503,2.192-2.256,4.032-2.256c0.815,0,1.496,0.112,2.04,0.336
		c0.544,0.225,0.983,0.536,1.32,0.937c0.336,0.4,0.571,0.876,0.707,1.428c0.137,0.552,0.204,1.164,0.204,1.836v8.16h-2.04v-8.4
		c0-0.768-0.224-1.375-0.672-1.823s-1.063-0.673-1.848-0.673c-0.624,0-1.164,0.097-1.62,0.288c-0.456,0.192-0.836,0.465-1.14,0.816
		c-0.305,0.353-0.532,0.765-0.685,1.236s-0.228,0.987-0.228,1.548v7.008h-2.04V284.47H968.599z"/>
	<path fill="#1F78B4" d="M985.326,284.47v1.8h-2.472v7.704c0,0.24,0.02,0.433,0.06,0.576c0.04,0.145,0.116,0.256,0.229,0.336
		c0.111,0.08,0.268,0.132,0.468,0.156s0.46,0.036,0.78,0.036h0.936v1.8h-1.56c-0.528,0-0.98-0.036-1.356-0.108
		c-0.376-0.071-0.68-0.203-0.912-0.396c-0.231-0.192-0.404-0.464-0.516-0.816c-0.112-0.352-0.168-0.815-0.168-1.392v-7.896h-2.112
		v-1.8h2.112v-3.72h2.04v3.72H985.326z"/>
	<path fill="#A6CEE3" d="M741.706,308.542c2.641,0,4.672,0.672,6.096,2.016s2.137,3.393,2.137,6.145c0,1.439-0.16,2.716-0.48,3.827
		c-0.32,1.112-0.816,2.049-1.488,2.809s-1.527,1.34-2.567,1.74c-1.04,0.399-2.272,0.6-3.696,0.6h-5.88v-17.136H741.706z
		 M741.897,323.758c0.256,0,0.576-0.02,0.961-0.061c0.384-0.039,0.791-0.136,1.224-0.287c0.433-0.152,0.86-0.372,1.284-0.66
		s0.804-0.68,1.14-1.176c0.337-0.496,0.612-1.116,0.828-1.86s0.324-1.645,0.324-2.7c0-1.023-0.101-1.939-0.3-2.748
		c-0.201-0.808-0.528-1.496-0.984-2.063c-0.456-0.568-1.044-1-1.764-1.297c-0.721-0.296-1.608-0.443-2.664-0.443h-3.84v13.296
		H741.897z"/>
	<path fill="#A6CEE3" d="M752.099,316.93c0.256-0.792,0.639-1.479,1.151-2.063s1.144-1.045,1.896-1.381s1.617-0.504,2.593-0.504
		c0.991,0,1.86,0.168,2.604,0.504c0.743,0.336,1.371,0.797,1.883,1.381s0.896,1.271,1.152,2.063s0.385,1.645,0.385,2.556
		c0,0.912-0.129,1.761-0.385,2.544c-0.256,0.784-0.641,1.469-1.152,2.053s-1.14,1.04-1.883,1.368
		c-0.744,0.327-1.613,0.491-2.604,0.491c-0.976,0-1.841-0.164-2.593-0.491c-0.752-0.328-1.383-0.784-1.896-1.368
		s-0.896-1.269-1.151-2.053c-0.257-0.783-0.385-1.632-0.385-2.544C751.714,318.574,751.842,317.722,752.099,316.93z
		 M754.175,321.489c0.199,0.585,0.475,1.072,0.827,1.465c0.353,0.392,0.765,0.691,1.236,0.899s0.972,0.312,1.5,0.312
		s1.028-0.104,1.5-0.312s0.884-0.508,1.235-0.899c0.352-0.393,0.629-0.88,0.828-1.465c0.2-0.583,0.301-1.251,0.301-2.004
		c0-0.752-0.101-1.419-0.301-2.004c-0.199-0.584-0.477-1.075-0.828-1.476c-0.352-0.399-0.764-0.704-1.235-0.912
		s-0.972-0.312-1.5-0.312s-1.028,0.104-1.5,0.312s-0.884,0.513-1.236,0.912c-0.353,0.4-0.628,0.892-0.827,1.476
		c-0.201,0.585-0.301,1.252-0.301,2.004C753.874,320.238,753.974,320.906,754.175,321.489z"/>
	<path fill="#A6CEE3" d="M768.082,313.27v1.824h0.048c0.928-1.408,2.264-2.112,4.008-2.112c0.768,0,1.465,0.16,2.088,0.48
		c0.625,0.32,1.064,0.864,1.32,1.632c0.416-0.672,0.964-1.191,1.645-1.56c0.68-0.368,1.428-0.553,2.244-0.553
		c0.623,0,1.188,0.068,1.691,0.204c0.504,0.137,0.936,0.349,1.296,0.636c0.36,0.288,0.64,0.66,0.841,1.116
		c0.199,0.456,0.299,1.005,0.299,1.645v9.096h-2.039v-8.136c0-0.384-0.033-0.744-0.097-1.08s-0.185-0.628-0.36-0.876
		s-0.42-0.444-0.731-0.588c-0.312-0.145-0.716-0.217-1.212-0.217c-1.008,0-1.801,0.288-2.376,0.864
		c-0.576,0.576-0.864,1.344-0.864,2.305v7.728h-2.04v-8.136c0-0.4-0.036-0.769-0.108-1.104c-0.071-0.336-0.195-0.628-0.371-0.876
		c-0.177-0.248-0.412-0.439-0.709-0.576c-0.295-0.136-0.676-0.204-1.139-0.204c-0.593,0-1.102,0.12-1.525,0.36
		s-0.768,0.528-1.031,0.864s-0.456,0.684-0.576,1.044c-0.119,0.36-0.18,0.66-0.18,0.9v7.728h-2.04V313.27H768.082z"/>
	<path fill="#A6CEE3" d="M797.626,325.63c-0.353,0.208-0.84,0.312-1.465,0.312c-0.527,0-0.947-0.147-1.26-0.443
		c-0.312-0.296-0.468-0.78-0.468-1.452c-0.56,0.672-1.212,1.156-1.956,1.452s-1.548,0.443-2.412,0.443
		c-0.561,0-1.092-0.063-1.596-0.191s-0.94-0.328-1.309-0.601c-0.367-0.271-0.66-0.627-0.875-1.067
		c-0.217-0.44-0.324-0.973-0.324-1.597c0-0.703,0.119-1.279,0.359-1.728s0.557-0.812,0.948-1.092s0.841-0.492,1.345-0.637
		c0.504-0.144,1.02-0.264,1.547-0.359c0.561-0.112,1.092-0.196,1.597-0.252c0.504-0.056,0.948-0.136,1.332-0.24
		c0.384-0.104,0.688-0.256,0.911-0.456c0.225-0.2,0.337-0.492,0.337-0.876c0-0.447-0.085-0.808-0.253-1.08
		c-0.168-0.271-0.383-0.479-0.647-0.624c-0.264-0.144-0.56-0.24-0.888-0.288s-0.652-0.072-0.973-0.072
		c-0.863,0-1.584,0.165-2.16,0.492c-0.575,0.328-0.887,0.948-0.936,1.86h-2.039c0.031-0.768,0.191-1.416,0.479-1.944
		c0.288-0.527,0.672-0.956,1.151-1.284c0.48-0.327,1.028-0.563,1.645-0.708c0.615-0.144,1.275-0.216,1.98-0.216
		c0.559,0,1.115,0.04,1.668,0.12c0.551,0.08,1.051,0.243,1.5,0.491c0.447,0.247,0.807,0.595,1.08,1.042
		c0.271,0.446,0.407,1.029,0.407,1.747v6.371c0,0.479,0.028,0.83,0.084,1.054s0.244,0.335,0.563,0.335
		c0.177,0,0.385-0.032,0.625-0.096V325.63z M794.313,319.27c-0.256,0.191-0.592,0.331-1.008,0.418
		c-0.416,0.088-0.852,0.16-1.309,0.215c-0.455,0.057-0.916,0.12-1.379,0.191c-0.465,0.072-0.881,0.188-1.248,0.347
		c-0.369,0.158-0.669,0.386-0.9,0.681c-0.232,0.294-0.348,0.696-0.348,1.206c0,0.334,0.067,0.616,0.203,0.848
		c0.137,0.23,0.312,0.418,0.528,0.562c0.216,0.143,0.468,0.246,0.757,0.311c0.287,0.063,0.591,0.095,0.911,0.095
		c0.673,0,1.248-0.092,1.728-0.274c0.48-0.183,0.873-0.414,1.177-0.692c0.304-0.279,0.528-0.581,0.672-0.907
		c0.144-0.327,0.216-0.634,0.216-0.92V319.27z"/>
	<path fill="#A6CEE3" d="M799.642,311.038v-2.496h2.039v2.496H799.642z M801.681,313.27v12.408h-2.039V313.27H801.681z"/>
	<path fill="#A6CEE3" d="M806.769,313.27v1.968h0.049c0.848-1.503,2.191-2.256,4.031-2.256c0.816,0,1.496,0.112,2.041,0.336
		c0.543,0.225,0.983,0.536,1.319,0.937s0.571,0.876,0.708,1.428c0.136,0.552,0.204,1.164,0.204,1.836v8.16h-2.04v-8.4
		c0-0.768-0.225-1.375-0.672-1.823c-0.448-0.448-1.064-0.673-1.848-0.673c-0.625,0-1.164,0.097-1.621,0.288
		c-0.455,0.192-0.836,0.465-1.14,0.816c-0.304,0.353-0.532,0.765-0.684,1.236c-0.152,0.472-0.228,0.987-0.228,1.548v7.008h-2.041
		V313.27H806.769z"/>
</g>
<g>
	<line fill="#FFFFFF" stroke="#000000" stroke-miterlimit="10" x1="14.954" y1="86.178" x2="50.954" y2="86.178"/>
	<line fill="#FFFFFF" stroke="#000000" stroke-miterlimit="10" x1="14.454" y1="86.678" x2="14.454" y2="76.678"/>
	<line fill="#FFFFFF" stroke="#000000" stroke-miterlimit="10" x1="50.454" y1="86.678" x2="50.454" y2="76.678"/>
</g>
<line fill="#FFFFFF" stroke="#000000" stroke-miterlimit="10" x1="32.454" y1="86.678" x2="32.454" y2="317.678"/>
<line fill="#FFFFFF" stroke="#000000" stroke-miterlimit="10" x1="31.954" y1="318.178" x2="726.954" y2="318.178"/>
<g>
	<line fill="#FFFFFF" stroke="#000000" stroke-miterlimit="10" x1="55.954" y1="86.178" x2="191.954" y2="86.178"/>
	<line fill="#FFFFFF" stroke="#000000" stroke-miterlimit="10" x1="55.454" y1="86.678" x2="55.454" y2="76.678"/>
	<line fill="#FFFFFF" stroke="#000000" stroke-miterlimit="10" x1="192.454" y1="86.678" x2="192.454" y2="76.678"/>
</g>
<line fill="#FFFFFF" stroke="#000000" stroke-miterlimit="10" x1="123.454" y1="86.678" x2="123.454" y2="289.678"/>
<line fill="#FFFFFF" stroke="#000000" stroke-miterlimit="10" x1="122.954" y1="289.178" x2="726.954" y2="289.178"/>
<g>
	<line fill="#FFFFFF" stroke="#000000" stroke-miterlimit="10" x1="196.954" y1="86.178" x2="297.954" y2="86.178"/>
	<line fill="#FFFFFF" stroke="#000000" stroke-miterlimit="10" x1="196.454" y1="86.678" x2="196.454" y2="76.678"/>
	<line fill="#FFFFFF" stroke="#000000" stroke-miterlimit="10" x1="298.454" y1="86.678" x2="298.454" y2="76.678"/>
</g>
<line fill="#FFFFFF" stroke="#000000" stroke-miterlimit="10" x1="247.454" y1="86.678" x2="247.454" y2="260.678"/>
<line fill="#FFFFFF" stroke="#000000" stroke-miterlimit="10" x1="247.954" y1="260.178" x2="727.954" y2="260.178"/>
<g>
	<line fill="#FFFFFF" stroke="#000000" stroke-miterlimit="10" x1="307.954" y1="86.178" x2="443.954" y2="86.178"/>
	<line fill="#FFFFFF" stroke="#000000" stroke-miterlimit="10" x1="307.454" y1="86.678" x2="307.454" y2="76.678"/>
	<line fill="#FFFFFF" stroke="#000000" stroke-miterlimit="10" x1="444.454" y1="86.678" x2="444.454" y2="76.678"/>
</g>
<line fill="#FFFFFF" stroke="#000000" stroke-miterlimit="10" x1="374.954" y1="231.178" x2="727.954" y2="231.178"/>
<line fill="#FFFFFF" stroke="#000000" stroke-miterlimit="10" x1="375.454" y1="85.678" x2="375.454" y2="231.678"/>
<g>
	<line fill="#FFFFFF" stroke="#000000" stroke-miterlimit="10" x1="482.954" y1="86.178" x2="623.954" y2="86.178"/>
	<line fill="#FFFFFF" stroke="#000000" stroke-miterlimit="10" x1="482.454" y1="86.678" x2="482.454" y2="76.678"/>
	<line fill="#FFFFFF" stroke="#000000" stroke-miterlimit="10" x1="623.454" y1="86.678" x2="623.454" y2="76.678"/>
</g>
<line fill="#FFFFFF" stroke="#000000" stroke-miterlimit="10" x1="552.954" y1="203.178" x2="727.954" y2="203.178"/>
<line fill="#FFFFFF" stroke="#000000" stroke-miterlimit="10" x1="553.454" y1="85.678" x2="553.454" y2="203.678"/>
<g>
	<line fill="#FFFFFF" stroke="#000000" stroke-miterlimit="10" x1="661.954" y1="86.178" x2="696.954" y2="86.178"/>
	<line fill="#FFFFFF" stroke="#000000" stroke-miterlimit="10" x1="661.454" y1="86.678" x2="661.454" y2="76.678"/>
	<line fill="#FFFFFF" stroke="#000000" stroke-miterlimit="10" x1="697.454" y1="86.678" x2="697.454" y2="76.678"/>
</g>
<line fill="#FFFFFF" stroke="#000000" stroke-miterlimit="10" x1="678.954" y1="174.178" x2="728.954" y2="174.178"/>
<line fill="#FFFFFF" stroke="#000000" stroke-miterlimit="10" x1="679.454" y1="85.678" x2="679.454" y2="174.678"/>
<g>
</g>
<g>
</g>
<g>
</g>
<g>
</g>
<g>
</g>
<g>
</g>
<g>
</g>
<g>
</g>
<g>
</g>
<g>
</g>
<g>
</g>
<g>
</g>
<g>
</g>
<g>
</g>
<g>
</g>
</svg>
